<mxfile host="65bd71144e">
    <diagram id="KyVGrQpdg-2cfJXGxOOw" name="Page-1">
        <mxGraphModel dx="2927" dy="2007" grid="1" gridSize="10" guides="1" tooltips="1" connect="1" arrows="1" fold="1" page="1" pageScale="1" pageWidth="850" pageHeight="1100" math="0" shadow="0">
            <root>
                <mxCell id="0"/>
                <mxCell id="1" parent="0"/>
                <mxCell id="2" value="aircraft.py" style="shape=folder;fontStyle=1;tabWidth=110;tabHeight=30;tabPosition=left;html=1;boundedLbl=1;labelInHeader=1;container=1;collapsible=0;" parent="1" vertex="1">
                    <mxGeometry x="-625" y="-30" width="1900" height="850" as="geometry"/>
                </mxCell>
                <mxCell id="3" value="" style="html=1;strokeColor=none;resizeWidth=1;resizeHeight=1;fillColor=none;part=1;connectable=0;allowArrows=0;deletable=0;" parent="2" vertex="1">
                    <mxGeometry width="1878.6516853932583" height="595" relative="1" as="geometry">
                        <mxPoint y="30" as="offset"/>
                    </mxGeometry>
                </mxCell>
                <mxCell id="32" value="&lt;div&gt;Creates&lt;/div&gt;" style="endArrow=open;endSize=12;dashed=1;html=1;rounded=0;entryX=1.004;entryY=0.115;entryDx=0;entryDy=0;entryPerimeter=0;exitX=0;exitY=0.103;exitDx=0;exitDy=0;exitPerimeter=0;" parent="2" source="30" target="18" edge="1">
                    <mxGeometry width="160" relative="1" as="geometry">
                        <mxPoint x="1461.173533083646" y="307.21739130434776" as="sourcePoint"/>
                        <mxPoint x="1332.7187169883796" y="330" as="targetPoint"/>
                    </mxGeometry>
                </mxCell>
                <mxCell id="12" value="Aircraft" style="swimlane;fontStyle=0;childLayout=stackLayout;horizontal=1;startSize=26;fillColor=none;horizontalStack=0;resizeParent=1;resizeParentMax=0;resizeLast=0;collapsible=1;marginBottom=0;whiteSpace=wrap;html=1;" parent="2" vertex="1">
                    <mxGeometry x="140" y="100" width="935.81" height="364" as="geometry"/>
                </mxCell>
                <mxCell id="13" value="+ name: const string" style="text;strokeColor=none;fillColor=none;align=left;verticalAlign=top;spacingLeft=4;spacingRight=4;overflow=hidden;rotatable=0;points=[[0,0.5],[1,0.5]];portConstraint=eastwest;whiteSpace=wrap;html=1;" parent="12" vertex="1">
                    <mxGeometry y="26" width="935.81" height="26" as="geometry"/>
                </mxCell>
                <mxCell id="14" value="+ type: const AircraftType" style="text;strokeColor=none;fillColor=none;align=left;verticalAlign=top;spacingLeft=4;spacingRight=4;overflow=hidden;rotatable=0;points=[[0,0.5],[1,0.5]];portConstraint=eastwest;whiteSpace=wrap;html=1;" parent="12" vertex="1">
                    <mxGeometry y="52" width="935.81" height="26" as="geometry"/>
                </mxCell>
                <mxCell id="33" value="+ status: AircraftStatus" style="text;strokeColor=none;fillColor=none;align=left;verticalAlign=top;spacingLeft=4;spacingRight=4;overflow=hidden;rotatable=0;points=[[0,0.5],[1,0.5]];portConstraint=eastwest;whiteSpace=wrap;html=1;" parent="12" vertex="1">
                    <mxGeometry y="78" width="935.81" height="26" as="geometry"/>
                </mxCell>
                <mxCell id="43" value="+ location: Union[Airport | None]" style="text;strokeColor=none;fillColor=none;align=left;verticalAlign=top;spacingLeft=4;spacingRight=4;overflow=hidden;rotatable=0;points=[[0,0.5],[1,0.5]];portConstraint=eastwest;whiteSpace=wrap;html=1;" parent="12" vertex="1">
                    <mxGeometry y="104" width="935.81" height="26" as="geometry"/>
                </mxCell>
                <mxCell id="16" value="+ tail_number: const string" style="text;strokeColor=none;fillColor=none;align=left;verticalAlign=top;spacingLeft=4;spacingRight=4;overflow=hidden;rotatable=0;points=[[0,0.5],[1,0.5]];portConstraint=eastwest;whiteSpace=wrap;html=1;" parent="12" vertex="1">
                    <mxGeometry y="130" width="935.81" height="26" as="geometry"/>
                </mxCell>
                <mxCell id="17" value="+ passenger_capacity: const int" style="text;strokeColor=none;fillColor=none;align=left;verticalAlign=top;spacingLeft=4;spacingRight=4;overflow=hidden;rotatable=0;points=[[0,0.5],[1,0.5]];portConstraint=eastwest;whiteSpace=wrap;html=1;" parent="12" vertex="1">
                    <mxGeometry y="156" width="935.81" height="26" as="geometry"/>
                </mxCell>
                <mxCell id="18" value="+ cruise_speed: const int" style="text;strokeColor=none;fillColor=none;align=left;verticalAlign=top;spacingLeft=4;spacingRight=4;overflow=hidden;rotatable=0;points=[[0,0.5],[1,0.5]];portConstraint=eastwest;whiteSpace=wrap;html=1;" parent="12" vertex="1">
                    <mxGeometry y="182" width="935.81" height="26" as="geometry"/>
                </mxCell>
                <mxCell id="19" value="+ fuel_level: int" style="text;strokeColor=none;fillColor=none;align=left;verticalAlign=top;spacingLeft=4;spacingRight=4;overflow=hidden;rotatable=0;points=[[0,0.5],[1,0.5]];portConstraint=eastwest;whiteSpace=wrap;html=1;" parent="12" vertex="1">
                    <mxGeometry y="208" width="935.81" height="26" as="geometry"/>
                </mxCell>
                <mxCell id="20" value="+ fuel_capacity: const int" style="text;strokeColor=none;fillColor=none;align=left;verticalAlign=top;spacingLeft=4;spacingRight=4;overflow=hidden;rotatable=0;points=[[0,0.5],[1,0.5]];portConstraint=eastwest;whiteSpace=wrap;html=1;" parent="12" vertex="1">
                    <mxGeometry y="234" width="935.81" height="26" as="geometry"/>
                </mxCell>
                <mxCell id="22" value="+ fuel_efficiency: const float" style="text;strokeColor=none;fillColor=none;align=left;verticalAlign=top;spacingLeft=4;spacingRight=4;overflow=hidden;rotatable=0;points=[[0,0.5],[1,0.5]];portConstraint=eastwest;whiteSpace=wrap;html=1;" parent="12" vertex="1">
                    <mxGeometry y="260" width="935.81" height="26" as="geometry"/>
                </mxCell>
                <mxCell id="44" value="+ wait_timer: int" style="text;strokeColor=none;fillColor=none;align=left;verticalAlign=top;spacingLeft=4;spacingRight=4;overflow=hidden;rotatable=0;points=[[0,0.5],[1,0.5]];portConstraint=eastwest;whiteSpace=wrap;html=1;" parent="12" vertex="1">
                    <mxGeometry y="286" width="935.81" height="26" as="geometry"/>
                </mxCell>
                <mxCell id="21" value="+ max_range: const int" style="text;strokeColor=none;fillColor=none;align=left;verticalAlign=top;spacingLeft=4;spacingRight=4;overflow=hidden;rotatable=0;points=[[0,0.5],[1,0.5]];portConstraint=eastwest;whiteSpace=wrap;html=1;" parent="12" vertex="1">
                    <mxGeometry y="312" width="935.81" height="26" as="geometry"/>
                </mxCell>
                <mxCell id="23" value="+ __init__(self, name, type, status, location, passenger_capacity, cruise_speed, fuel_level, fuel_capacity, fuel_efficiency, max_range): None" style="text;strokeColor=default;fillColor=none;align=left;verticalAlign=top;spacingLeft=4;spacingRight=4;overflow=hidden;rotatable=0;points=[[0,0.5],[1,0.5]];portConstraint=eastwest;whiteSpace=wrap;html=1;" parent="12" vertex="1">
                    <mxGeometry y="338" width="935.81" height="26" as="geometry"/>
                </mxCell>
                <mxCell id="31" value="&lt;div&gt;Defines API&lt;/div&gt;" style="endArrow=open;endSize=12;dashed=1;html=1;rounded=0;exitX=0.5;exitY=0;exitDx=0;exitDy=0;" parent="2" source="24" target="45" edge="1">
                    <mxGeometry width="160" relative="1" as="geometry">
                        <mxPoint x="1589.6283491789106" y="428" as="sourcePoint"/>
                        <mxPoint x="1846.537981369442" y="428" as="targetPoint"/>
                    </mxGeometry>
                </mxCell>
                <mxCell id="24" value="enum AircraftType" style="swimlane;fontStyle=0;childLayout=stackLayout;horizontal=1;startSize=26;fillColor=none;horizontalStack=0;resizeParent=1;resizeParentMax=0;resizeLast=0;collapsible=1;marginBottom=0;whiteSpace=wrap;html=1;" parent="2" vertex="1">
                    <mxGeometry x="1398.3109574570246" y="464" width="224.79592816671467" height="132" as="geometry"/>
                </mxCell>
                <mxCell id="25" value="BOEING_737_600" style="text;strokeColor=none;fillColor=none;align=left;verticalAlign=top;spacingLeft=4;spacingRight=4;overflow=hidden;rotatable=0;points=[[0,0.5],[1,0.5]];portConstraint=eastwest;whiteSpace=wrap;html=1;" parent="24" vertex="1">
                    <mxGeometry y="26" width="224.79592816671467" height="26" as="geometry"/>
                </mxCell>
                <mxCell id="26" value="BOEING_737_800" style="text;strokeColor=none;fillColor=none;align=left;verticalAlign=top;spacingLeft=4;spacingRight=4;overflow=hidden;rotatable=0;points=[[0,0.5],[1,0.5]];portConstraint=eastwest;whiteSpace=wrap;html=1;" parent="24" vertex="1">
                    <mxGeometry y="52" width="224.79592816671467" height="28" as="geometry"/>
                </mxCell>
                <mxCell id="27" value="AIRBUS_A200_100" style="text;strokeColor=none;fillColor=none;align=left;verticalAlign=top;spacingLeft=4;spacingRight=4;overflow=hidden;rotatable=0;points=[[0,0.5],[1,0.5]];portConstraint=eastwest;whiteSpace=wrap;html=1;" parent="24" vertex="1">
                    <mxGeometry y="80" width="224.79592816671467" height="26" as="geometry"/>
                </mxCell>
                <mxCell id="28" value="AIRBUS_A220_300" style="text;strokeColor=none;fillColor=none;align=left;verticalAlign=top;spacingLeft=4;spacingRight=4;overflow=hidden;rotatable=0;points=[[0,0.5],[1,0.5]];portConstraint=eastwest;whiteSpace=wrap;html=1;" parent="24" vertex="1">
                    <mxGeometry y="106" width="224.79592816671467" height="26" as="geometry"/>
                </mxCell>
                <mxCell id="29" value="AircraftFactory" style="swimlane;fontStyle=0;childLayout=stackLayout;horizontal=1;startSize=26;fillColor=none;horizontalStack=0;resizeParent=1;resizeParentMax=0;resizeLast=0;collapsible=1;marginBottom=0;whiteSpace=wrap;html=1;" parent="2" vertex="1">
                    <mxGeometry x="1249.196629213483" y="256" width="523.0337078651685" height="78" as="geometry"/>
                </mxCell>
                <mxCell id="30" value="+ @staticmethod create_aircraft(aircraft_type, aircraft_status, location, fuel_level): Aircraft" style="text;strokeColor=none;fillColor=none;align=left;verticalAlign=top;spacingLeft=4;spacingRight=4;overflow=hidden;rotatable=0;points=[[0,0.5],[1,0.5]];portConstraint=eastwest;whiteSpace=wrap;html=1;" parent="29" vertex="1">
                    <mxGeometry y="26" width="523.0337078651685" height="26" as="geometry"/>
                </mxCell>
                <mxCell id="45" value="- @staticmethod __next_tail_number() : str" style="text;strokeColor=none;fillColor=none;align=left;verticalAlign=top;spacingLeft=4;spacingRight=4;overflow=hidden;rotatable=0;points=[[0,0.5],[1,0.5]];portConstraint=eastwest;whiteSpace=wrap;html=1;" vertex="1" parent="29">
                    <mxGeometry y="52" width="523.0337078651685" height="26" as="geometry"/>
                </mxCell>
                <mxCell id="34" value="enum AircraftStatus" style="swimlane;fontStyle=0;childLayout=stackLayout;horizontal=1;startSize=26;fillColor=none;horizontalStack=0;resizeParent=1;resizeParentMax=0;resizeLast=0;collapsible=1;marginBottom=0;whiteSpace=wrap;html=1;" parent="2" vertex="1">
                    <mxGeometry x="773.3711120714491" y="530" width="353.25074426198023" height="210" as="geometry"/>
                </mxCell>
                <mxCell id="36" value="AVAILABLE" style="text;strokeColor=none;fillColor=none;align=left;verticalAlign=top;spacingLeft=4;spacingRight=4;overflow=hidden;rotatable=0;points=[[0,0.5],[1,0.5]];portConstraint=eastwest;whiteSpace=wrap;html=1;" parent="34" vertex="1">
                    <mxGeometry y="26" width="353.25074426198023" height="28" as="geometry"/>
                </mxCell>
                <mxCell id="37" value="IN_MAINTENANCE" style="text;strokeColor=none;fillColor=none;align=left;verticalAlign=top;spacingLeft=4;spacingRight=4;overflow=hidden;rotatable=0;points=[[0,0.5],[1,0.5]];portConstraint=eastwest;whiteSpace=wrap;html=1;" parent="34" vertex="1">
                    <mxGeometry y="54" width="353.25074426198023" height="26" as="geometry"/>
                </mxCell>
                <mxCell id="38" value="WAITING_ON_TARMAC" style="text;strokeColor=none;fillColor=none;align=left;verticalAlign=top;spacingLeft=4;spacingRight=4;overflow=hidden;rotatable=0;points=[[0,0.5],[1,0.5]];portConstraint=eastwest;whiteSpace=wrap;html=1;" parent="34" vertex="1">
                    <mxGeometry y="80" width="353.25074426198023" height="26" as="geometry"/>
                </mxCell>
                <mxCell id="39" value="BOARDING_WITHOUT_REFUELING" style="text;strokeColor=none;fillColor=none;align=left;verticalAlign=top;spacingLeft=4;spacingRight=4;overflow=hidden;rotatable=0;points=[[0,0.5],[1,0.5]];portConstraint=eastwest;whiteSpace=wrap;html=1;" parent="34" vertex="1">
                    <mxGeometry y="106" width="353.25074426198023" height="26" as="geometry"/>
                </mxCell>
                <mxCell id="40" value="BOARDING_WITH_REFUELING" style="text;strokeColor=none;fillColor=none;align=left;verticalAlign=top;spacingLeft=4;spacingRight=4;overflow=hidden;rotatable=0;points=[[0,0.5],[1,0.5]];portConstraint=eastwest;whiteSpace=wrap;html=1;" parent="34" vertex="1">
                    <mxGeometry y="132" width="353.25074426198023" height="26" as="geometry"/>
                </mxCell>
                <mxCell id="41" value="DEBOARDING" style="text;strokeColor=none;fillColor=none;align=left;verticalAlign=top;spacingLeft=4;spacingRight=4;overflow=hidden;rotatable=0;points=[[0,0.5],[1,0.5]];portConstraint=eastwest;whiteSpace=wrap;html=1;" parent="34" vertex="1">
                    <mxGeometry y="158" width="353.25074426198023" height="26" as="geometry"/>
                </mxCell>
                <mxCell id="42" value="IN_FLIGHT" style="text;strokeColor=none;fillColor=none;align=left;verticalAlign=top;spacingLeft=4;spacingRight=4;overflow=hidden;rotatable=0;points=[[0,0.5],[1,0.5]];portConstraint=eastwest;whiteSpace=wrap;html=1;" parent="34" vertex="1">
                    <mxGeometry y="184" width="353.25074426198023" height="26" as="geometry"/>
                </mxCell>
                <mxCell id="46" value="Defines status" style="endArrow=open;endSize=12;dashed=1;html=1;rounded=0;exitX=0.5;exitY=0;exitDx=0;exitDy=0;entryX=0.862;entryY=1.116;entryDx=0;entryDy=0;entryPerimeter=0;" edge="1" parent="2" source="34" target="23">
                    <mxGeometry width="160" relative="1" as="geometry">
                        <mxPoint x="1034.826629213483" y="529.4979999999998" as="sourcePoint"/>
                        <mxPoint x="606" y="467" as="targetPoint"/>
                    </mxGeometry>
                </mxCell>
                <mxCell id="47" value="map WAIT_TIMERS" style="swimlane;fontStyle=0;childLayout=stackLayout;horizontal=1;startSize=26;fillColor=none;horizontalStack=0;resizeParent=1;resizeParentMax=0;resizeLast=0;collapsible=1;marginBottom=0;whiteSpace=wrap;html=1;" vertex="1" parent="2">
                    <mxGeometry x="140.00111207144914" y="560" width="400" height="132" as="geometry"/>
                </mxCell>
                <mxCell id="48" value="AircraftStatus.IN_MAINTENANCE =&amp;gt; 2160 minutes" style="text;strokeColor=none;fillColor=none;align=left;verticalAlign=top;spacingLeft=4;spacingRight=4;overflow=hidden;rotatable=0;points=[[0,0.5],[1,0.5]];portConstraint=eastwest;whiteSpace=wrap;html=1;" vertex="1" parent="47">
                    <mxGeometry y="26" width="400" height="28" as="geometry"/>
                </mxCell>
                <mxCell id="49" value="AircraftStatus.BOARDING_WITHOUT_REFUELING =&amp;gt; 25 minutes" style="text;strokeColor=none;fillColor=none;align=left;verticalAlign=top;spacingLeft=4;spacingRight=4;overflow=hidden;rotatable=0;points=[[0,0.5],[1,0.5]];portConstraint=eastwest;whiteSpace=wrap;html=1;" vertex="1" parent="47">
                    <mxGeometry y="54" width="400" height="26" as="geometry"/>
                </mxCell>
                <mxCell id="55" value="AircraftStatus.BOARDING_WITH_REFUELING =&amp;gt; 35 minutes" style="text;strokeColor=none;fillColor=none;align=left;verticalAlign=top;spacingLeft=4;spacingRight=4;overflow=hidden;rotatable=0;points=[[0,0.5],[1,0.5]];portConstraint=eastwest;whiteSpace=wrap;html=1;" vertex="1" parent="47">
                    <mxGeometry y="80" width="400" height="26" as="geometry"/>
                </mxCell>
                <mxCell id="50" value="AircraftStatus.DEBOARDING =&amp;gt; 15 minutes" style="text;strokeColor=none;fillColor=none;align=left;verticalAlign=top;spacingLeft=4;spacingRight=4;overflow=hidden;rotatable=0;points=[[0,0.5],[1,0.5]];portConstraint=eastwest;whiteSpace=wrap;html=1;" vertex="1" parent="47">
                    <mxGeometry y="106" width="400" height="26" as="geometry"/>
                </mxCell>
                <mxCell id="57" value="maps status to wait timer" style="endArrow=open;endSize=12;dashed=1;html=1;rounded=0;exitX=1;exitY=0.5;exitDx=0;exitDy=0;entryX=0;entryY=0.5;entryDx=0;entryDy=0;" edge="1" parent="2" source="49" target="38">
                    <mxGeometry width="160" relative="1" as="geometry">
                        <mxPoint x="644.9989215403816" y="750" as="sourcePoint"/>
                        <mxPoint x="645.0030684546409" y="620" as="targetPoint"/>
                    </mxGeometry>
                </mxCell>
            </root>
        </mxGraphModel>
    </diagram>
</mxfile>